<svg width="26" height="26" viewBox="0 0 26 26" fill="none" xmlns="http://www.w3.org/2000/svg">
<g clip-path="url(#clip0)">
<path d="M17.5908 8.40938C20.1299 10.9484 20.1299 15.0617 17.5908 17.6008C16.3213 18.8703 16.3213 20.932 17.5908 22.1914C18.8604 23.4609 20.9221 23.4609 22.1916 22.1914C27.2697 17.1133 27.2697 8.88672 22.1916 3.80859L17.5908 8.40938Z" fill="#EA4335"/>
<path d="M22.1812 3.80859C17.1031 -1.26953 8.88672 -1.26953 3.80859 3.80859C-1.26953 8.88672 -1.26953 17.1133 3.80859 22.1914L8.40938 17.6008C5.87031 15.0617 5.87031 10.9484 8.40938 8.40938C10.9484 5.87031 15.0617 5.87031 17.6008 8.40938C18.8703 9.67891 20.932 9.67891 22.2016 8.40938C23.4508 7.13984 23.4508 5.07812 22.1812 3.80859Z" fill="#34A853"/>
<path d="M22.1811 22.1915L17.5803 17.6008C15.0412 20.1399 10.9279 20.1399 8.38887 17.6008L3.78809 22.1915C8.88652 27.2696 17.1029 27.2696 22.1811 22.1915Z" fill="#FBBC04"/>
<path d="M17.5908 17.6008C18.8604 16.3313 20.9119 16.3313 22.1814 17.6008C23.451 18.8704 23.451 20.9321 22.1814 22.2016C20.9119 23.4711 18.8604 23.4711 17.5908 22.2016C16.3213 20.9321 16.3213 18.8704 17.5908 17.6008Z" fill="#EA4335"/>
<path d="M3.80859 17.6008C5.07812 16.3313 7.12969 16.3313 8.39922 17.6008C9.66875 18.8704 9.66875 20.9321 8.39922 22.2016C7.12969 23.4711 5.07812 23.4711 3.80859 22.2016C2.53906 20.9321 2.53906 18.8704 3.80859 17.6008Z" fill="#246FDB"/>
</g>
<defs>
<clipPath id="clip0">
<rect width="26" height="26" fill="white"/>
</clipPath>
</defs>
</svg>
